<svg width="156" height="40" viewBox="0 0 156 40" fill="none" xmlns="http://www.w3.org/2000/svg">
<path fill-rule="evenodd" clip-rule="evenodd" d="M22.2515 33.3784L27.0875 36.1055L34.1324 32.1609V26.9874L38.8478 23.9946V15.8503L34.1324 13.2604V7.77295L27.1235 3.86767L22.3096 6.52238L20.0537 7.7665L20.0149 10.3156H24.4484L27.1125 8.88442L29.7447 10.351V15.8564L34.46 18.4463V21.5826L29.7447 24.5754V29.589L27.1275 31.0544L24.4484 29.5648L24.4622 32.1527L24.3769 32.2L22.2502 33.3776L22.2515 33.3784Z" fill="url(#paint0_linear_1984_668)"/>
<path d="M20.0537 7.7665L22.3096 6.52238L17.4057 3.82751L10.4258 7.76142V12.935L5.74121 15.9278V24.0638L10.4258 26.6537V32.1411L17.4053 36.0651L22.2515 33.3784L22.2502 33.3776L24.3769 32.2L24.4622 32.1527L24.4484 29.5648H20.0149L17.4142 31.0299L14.8135 29.5713V24.0659L10.1289 21.476V18.3314L14.8135 15.3386V10.3251L17.4326 8.84894L20.0149 10.3156L20.0537 7.7665Z" fill="url(#paint1_linear_1984_668)"/>
<path d="M20.0149 10.3156V29.5648H24.4484V10.3156H20.0149Z" fill="url(#paint2_linear_1984_668)"/>
<path d="M54.5234 23.811H50.5874L49.9891 25.6216H46.7458L50.792 14.5221H54.3502L58.3806 25.6216H55.1216L54.5234 23.811ZM53.7519 21.4494L52.5554 17.8598L51.3746 21.4494H53.7519Z" fill="url(#paint3_linear_1984_668)"/>
<path d="M62.9642 14.5221V25.6216H59.8784V14.5221H62.9642Z" fill="url(#paint4_linear_1984_668)"/>
<path d="M73.5735 14.5221V16.9782H70.6137V25.6216H67.5279V16.9782H64.5995V14.5221H73.5735Z" fill="url(#paint5_linear_1984_668)"/>
<path d="M87.4821 18.2219C87.4821 18.8937 87.3247 19.5077 87.0098 20.064C86.7054 20.6098 86.2383 21.0506 85.6086 21.3865C84.9893 21.7118 84.2283 21.8745 83.3257 21.8745H81.7985V25.6216H78.7127V14.5221H83.3257C84.2178 14.5221 84.9736 14.6795 85.5928 14.9944C86.2226 15.3093 86.6949 15.7449 87.0098 16.3012C87.3247 16.8575 87.4821 17.4977 87.4821 18.2219ZM83.0266 19.4185C83.8977 19.4185 84.3333 19.0196 84.3333 18.2219C84.3333 17.4137 83.8977 17.0097 83.0266 17.0097H81.7985V19.4185H83.0266Z" fill="url(#paint6_linear_1984_668)"/>
<path d="M92.2996 18.3479C92.646 17.8441 93.0658 17.4452 93.5591 17.1513C94.0524 16.8575 94.5825 16.7105 95.1493 16.7105V20.001H94.2834C93.6116 20.001 93.1131 20.1322 92.7877 20.3946C92.4623 20.657 92.2996 21.1136 92.2996 21.7643V25.6216H89.2138V16.7892H92.2996V18.3479Z" fill="url(#paint7_linear_1984_668)"/>
<path d="M100.857 25.7318C99.975 25.7318 99.1826 25.5481 98.4794 25.1808C97.7866 24.8134 97.2408 24.2886 96.842 23.6064C96.4432 22.9241 96.2437 22.1212 96.2437 21.1975C96.2437 20.2844 96.4432 19.4867 96.842 18.8045C97.2513 18.1222 97.8024 17.5974 98.4951 17.2301C99.1983 16.8627 99.9908 16.679 100.872 16.679C101.754 16.679 102.541 16.8627 103.234 17.2301C103.937 17.5974 104.488 18.1222 104.887 18.8045C105.297 19.4867 105.501 20.2844 105.501 21.1975C105.501 22.1107 105.297 22.9136 104.887 23.6064C104.488 24.2886 103.937 24.8134 103.234 25.1808C102.531 25.5481 101.738 25.7318 100.857 25.7318ZM100.857 23.0553C101.287 23.0553 101.644 22.8979 101.927 22.583C102.221 22.2576 102.368 21.7958 102.368 21.1975C102.368 20.5993 102.221 20.1427 101.927 19.8278C101.644 19.5129 101.292 19.3555 100.872 19.3555C100.453 19.3555 100.101 19.5129 99.8176 19.8278C99.5342 20.1427 99.3925 20.5993 99.3925 21.1975C99.3925 21.8063 99.529 22.2681 99.8019 22.583C100.075 22.8979 100.426 23.0553 100.857 23.0553Z" fill="url(#paint8_linear_1984_668)"/>
<path d="M112.46 22.9924V25.6216H111.122C108.865 25.6216 107.737 24.5038 107.737 22.2681V19.3555H106.65V16.7892H107.737V14.6481H110.838V16.7892H112.444V19.3555H110.838V22.3154C110.838 22.5568 110.891 22.73 110.996 22.8349C111.111 22.9399 111.3 22.9924 111.562 22.9924H112.46Z" fill="url(#paint9_linear_1984_668)"/>
<path d="M118.476 25.7318C117.595 25.7318 116.802 25.5481 116.099 25.1808C115.406 24.8134 114.861 24.2886 114.462 23.6064C114.063 22.9241 113.863 22.1212 113.863 21.1975C113.863 20.2844 114.063 19.4867 114.462 18.8045C114.871 18.1222 115.422 17.5974 116.115 17.2301C116.818 16.8627 117.61 16.679 118.492 16.679C119.374 16.679 120.161 16.8627 120.854 17.2301C121.557 17.5974 122.108 18.1222 122.507 18.8045C122.916 19.4867 123.121 20.2844 123.121 21.1975C123.121 22.1107 122.916 22.9136 122.507 23.6064C122.108 24.2886 121.557 24.8134 120.854 25.1808C120.151 25.5481 119.358 25.7318 118.476 25.7318ZM118.476 23.0553C118.907 23.0553 119.264 22.8979 119.547 22.583C119.841 22.2576 119.988 21.7958 119.988 21.1975C119.988 20.5993 119.841 20.1427 119.547 19.8278C119.264 19.5129 118.912 19.3555 118.492 19.3555C118.072 19.3555 117.721 19.5129 117.437 19.8278C117.154 20.1427 117.012 20.5993 117.012 21.1975C117.012 21.8063 117.149 22.2681 117.422 22.583C117.694 22.8979 118.046 23.0553 118.476 23.0553Z" fill="url(#paint10_linear_1984_668)"/>
<path d="M124.365 21.1975C124.365 20.2844 124.553 19.4867 124.931 18.8045C125.309 18.1222 125.834 17.5974 126.506 17.2301C127.188 16.8627 127.965 16.679 128.836 16.679C129.959 16.679 130.904 16.9887 131.67 17.6079C132.436 18.2167 132.929 19.0721 133.15 20.1742H129.875C129.686 19.5969 129.319 19.3083 128.773 19.3083C128.384 19.3083 128.075 19.471 127.844 19.7963C127.624 20.1112 127.513 20.5783 127.513 21.1975C127.513 21.8168 127.624 22.2891 127.844 22.6145C128.075 22.9399 128.384 23.1026 128.773 23.1026C129.329 23.1026 129.696 22.8139 129.875 22.2366H133.15C132.929 23.3282 132.436 24.1836 131.67 24.8029C130.904 25.4222 129.959 25.7318 128.836 25.7318C127.965 25.7318 127.188 25.5481 126.506 25.1808C125.834 24.8134 125.309 24.2886 124.931 23.6064C124.553 22.9241 124.365 22.1212 124.365 21.1975Z" fill="url(#paint11_linear_1984_668)"/>
<path d="M139.033 25.7318C138.151 25.7318 137.359 25.5481 136.655 25.1808C135.963 24.8134 135.417 24.2886 135.018 23.6064C134.619 22.9241 134.42 22.1212 134.42 21.1975C134.42 20.2844 134.619 19.4867 135.018 18.8045C135.427 18.1222 135.978 17.5974 136.671 17.2301C137.374 16.8627 138.167 16.679 139.048 16.679C139.93 16.679 140.717 16.8627 141.41 17.2301C142.113 17.5974 142.664 18.1222 143.063 18.8045C143.473 19.4867 143.677 20.2844 143.677 21.1975C143.677 22.1107 143.473 22.9136 143.063 23.6064C142.664 24.2886 142.113 24.8134 141.41 25.1808C140.707 25.5481 139.914 25.7318 139.033 25.7318ZM139.033 23.0553C139.463 23.0553 139.82 22.8979 140.103 22.583C140.397 22.2576 140.544 21.7958 140.544 21.1975C140.544 20.5993 140.397 20.1427 140.103 19.8278C139.82 19.5129 139.468 19.3555 139.048 19.3555C138.629 19.3555 138.277 19.5129 137.994 19.8278C137.71 20.1427 137.569 20.5993 137.569 21.1975C137.569 21.8063 137.705 22.2681 137.978 22.583C138.251 22.8979 138.602 23.0553 139.033 23.0553Z" fill="url(#paint12_linear_1984_668)"/>
<path d="M148.51 13.9711V25.6216H145.425V13.9711H148.51Z" fill="url(#paint13_linear_1984_668)"/>
<defs>
<linearGradient id="paint0_linear_1984_668" x1="24.9891" y1="13.1811" x2="45.3019" y2="24.1125" gradientUnits="userSpaceOnUse">
<stop stop-color="#7B61FF"/>
<stop offset="1" stop-color="#533DC4"/>
</linearGradient>
<linearGradient id="paint1_linear_1984_668" x1="7.57949" y1="14.1003" x2="19.6364" y2="27.0223" gradientUnits="userSpaceOnUse">
<stop stop-color="#6AFFAF"/>
<stop offset="1" stop-color="#5CFEEB"/>
</linearGradient>
<linearGradient id="paint2_linear_1984_668" x1="22.2763" y1="10.3279" x2="22.2762" y2="29.6051" gradientUnits="userSpaceOnUse">
<stop offset="0.00520833" stop-color="#7C62FF"/>
<stop offset="1" stop-color="#5DFEEB"/>
</linearGradient>
<linearGradient id="paint3_linear_1984_668" x1="46.8949" y1="20.296" x2="149.758" y2="20.296" gradientUnits="userSpaceOnUse">
<stop stop-color="#67FABC"/>
<stop offset="1" stop-color="#735AF3"/>
</linearGradient>
<linearGradient id="paint4_linear_1984_668" x1="46.8949" y1="20.296" x2="149.758" y2="20.296" gradientUnits="userSpaceOnUse">
<stop stop-color="#67FABC"/>
<stop offset="1" stop-color="#735AF3"/>
</linearGradient>
<linearGradient id="paint5_linear_1984_668" x1="46.8949" y1="20.296" x2="149.758" y2="20.296" gradientUnits="userSpaceOnUse">
<stop stop-color="#67FABC"/>
<stop offset="1" stop-color="#735AF3"/>
</linearGradient>
<linearGradient id="paint6_linear_1984_668" x1="46.8949" y1="20.296" x2="149.758" y2="20.296" gradientUnits="userSpaceOnUse">
<stop stop-color="#67FABC"/>
<stop offset="1" stop-color="#735AF3"/>
</linearGradient>
<linearGradient id="paint7_linear_1984_668" x1="46.8949" y1="20.296" x2="149.758" y2="20.296" gradientUnits="userSpaceOnUse">
<stop stop-color="#67FABC"/>
<stop offset="1" stop-color="#735AF3"/>
</linearGradient>
<linearGradient id="paint8_linear_1984_668" x1="46.8949" y1="20.296" x2="149.758" y2="20.296" gradientUnits="userSpaceOnUse">
<stop stop-color="#67FABC"/>
<stop offset="1" stop-color="#735AF3"/>
</linearGradient>
<linearGradient id="paint9_linear_1984_668" x1="46.8949" y1="20.296" x2="149.758" y2="20.296" gradientUnits="userSpaceOnUse">
<stop stop-color="#67FABC"/>
<stop offset="1" stop-color="#735AF3"/>
</linearGradient>
<linearGradient id="paint10_linear_1984_668" x1="46.8949" y1="20.296" x2="149.758" y2="20.296" gradientUnits="userSpaceOnUse">
<stop stop-color="#67FABC"/>
<stop offset="1" stop-color="#735AF3"/>
</linearGradient>
<linearGradient id="paint11_linear_1984_668" x1="46.8949" y1="20.296" x2="149.758" y2="20.296" gradientUnits="userSpaceOnUse">
<stop stop-color="#67FABC"/>
<stop offset="1" stop-color="#735AF3"/>
</linearGradient>
<linearGradient id="paint12_linear_1984_668" x1="46.8949" y1="20.296" x2="149.758" y2="20.296" gradientUnits="userSpaceOnUse">
<stop stop-color="#67FABC"/>
<stop offset="1" stop-color="#735AF3"/>
</linearGradient>
<linearGradient id="paint13_linear_1984_668" x1="46.8949" y1="20.296" x2="149.758" y2="20.296" gradientUnits="userSpaceOnUse">
<stop stop-color="#67FABC"/>
<stop offset="1" stop-color="#735AF3"/>
</linearGradient>
</defs>
</svg>
