<svg width="107" height="32" viewBox="0 0 107 32" fill="none" xmlns="http://www.w3.org/2000/svg">
<g clip-path="url(#clip0_62_8)">
<path fill-rule="evenodd" clip-rule="evenodd" d="M7.43913 27.4739C3.94783 24.8652 1.68261 20.6957 1.68261 16C1.68261 8.09565 8.09565 1.68261 16 1.68261C22.5261 1.68261 29.6522 5.58261 31.3739 11.5565C29.4478 4.88261 23.2957 0 16 0C7.16522 0 0 7.16522 0 16C0 24.8348 7.16522 32 16 32C24.8348 32 32 24.8348 32 16V15.1565H31.1217C31.0957 15.1565 31.0565 15.1565 31.0043 15.1565C30.9 15.1565 30.7522 15.1522 30.5609 15.1435C30.1826 15.1304 29.6609 15.1043 29.0739 15.0522C27.8739 14.9478 26.5043 14.7435 25.5739 14.3696C24.0739 13.7696 23.2261 12.9783 22.2609 12.0478L22.2043 11.9957C21.2348 11.0652 20.1478 10.0174 18.2565 9.13043C16.3957 8.25652 14.3391 8.39565 12.8304 8.7087C12.0652 8.86522 11.4043 9.07391 10.9391 9.24348C10.7043 9.32609 10.5174 9.40435 10.387 9.45652C9.62609 9.77826 8.88696 10.1565 8.14348 10.5087C8.14348 10.5087 9.6087 10.9087 10.3304 11.1348C10.3565 11.1435 10.3957 11.1565 10.4522 11.1739C10.5609 11.2087 10.7174 11.2652 10.9043 11.3435C11.287 11.5 11.787 11.7304 12.2826 12.0522C13.0652 12.5522 13.713 13.187 13.9783 13.9609C12.3217 14.1783 10.7652 14.9087 9.6 15.5913C8.89565 16.0043 8.3087 16.4217 7.89565 16.7304C7.6913 16.887 7.52609 17.0174 7.41304 17.1087C7.31739 17.187 5.82174 18.5043 5.82174 18.5043C5.82174 18.5043 7.75217 18.7087 8.70435 18.9C9.33913 19.0261 10.1913 19.2348 11.087 19.5435C11.9826 19.8565 12.887 20.2652 13.6391 20.7913C14.3913 21.3174 14.9435 21.9217 15.213 22.6174C16.0043 24.6435 15.2261 26.613 13.6652 27.7217C12.1217 28.8174 9.77826 29.0783 7.43478 27.4696L7.43913 27.4739ZM12.9 29.9783C13.5304 29.7739 14.1174 29.4739 14.6478 29.1C16.7696 27.5913 17.887 24.8261 16.787 22.0087C16.3522 20.9 15.5261 20.0565 14.6087 19.413C13.687 18.7696 12.6304 18.3 11.6478 17.9565C11.0043 17.7304 10.3783 17.5565 9.83478 17.4261C10.0304 17.3 10.2348 17.1696 10.4565 17.0391C11.7522 16.2783 13.387 15.5783 14.9522 15.5783C17.313 15.5783 19.0696 16.3043 20.7478 17.0783C20.9 17.1478 21.0522 17.2217 21.2087 17.2913C22.7087 17.9957 24.2826 18.7348 26.113 18.7348C27.9435 18.7348 29.2696 18.2348 30.2217 17.713C29.3739 24.8087 23.3348 30.313 16.0087 30.313C14.9435 30.313 13.9043 30.1957 12.9087 29.9783H12.9ZM28.3957 16.6826C27.7652 16.8957 27 17.0522 26.1087 17.0522C24.6739 17.0522 23.4391 16.4783 21.8739 15.7478C21.7348 15.6826 21.5957 15.6174 21.4522 15.5522C19.8826 14.8261 18.0696 14.0565 15.7087 13.9174C15.3913 12.3565 14.2087 11.287 13.1913 10.6348C13.0783 10.5609 12.9652 10.4913 12.8522 10.4261C12.9522 10.4043 13.0565 10.3783 13.1652 10.3565C14.5304 10.0739 16.1565 10.0043 17.5348 10.6565C19.1696 11.4261 20.0957 12.313 21.0565 13.2348L21.0913 13.2652C22.0783 14.213 23.1261 15.2087 24.9478 15.9391C25.9609 16.3435 27.2739 16.5609 28.3957 16.6826Z" fill="url(#paint0_linear_62_8)"/>
<path d="M42.3564 12.5525V3.10034H44.1651L45.7303 6.89599L47.2955 3.10034H49.1042V12.5525H47.6868V5.2873L45.7172 9.96991L43.7477 5.2873V12.5525H42.3564Z" fill="#F4F4F4"/>
<path d="M51.2521 12.5525L54.2217 3.10034H56.1391L59.1087 12.5525H57.4608L56.7739 10.2699H53.5217L52.8478 12.5525H51.2565H51.2521ZM53.8826 9.01339H56.4217L55.1521 4.81339L53.8826 9.01339Z" fill="#F4F4F4"/>
<path d="M61.4303 12.5525V3.10034H63.0651L66.4825 9.71339L66.4564 3.10034H67.8346V12.5525H66.3346L62.7825 5.72208L62.8086 12.5525H61.4303Z" fill="#F4F4F4"/>
<path d="M73.2695 12.5525V4.4786H70.3391V3.10034H77.8173V4.4786H74.8869V12.5525H73.2652H73.2695Z" fill="#F4F4F4"/>
<path d="M79.6042 12.5525L82.5738 3.10034H84.4912L87.4607 12.5525H85.813L85.1259 10.2699H81.8738L81.1999 12.5525H79.6087H79.6042ZM82.2346 9.01339H84.7738L83.5042 4.81339L82.2346 9.01339Z" fill="#F4F4F4"/>
<path d="M42.5304 28.7525V19.3003H44.1652L47.5826 25.9133L47.5565 19.3003H48.9347V28.7525H47.4347L43.8826 21.922L43.9087 28.7525H42.5304Z" fill="#F4F4F4"/>
<path d="M52.3042 28.7525V19.3003H58.4868V20.6786H53.9216V23.3133H56.8781V24.6612H53.9216V27.3742H58.539V28.7525H52.2999H52.3042Z" fill="#F4F4F4"/>
<path d="M63.8216 28.7525V20.6786H60.8912V19.3003H68.3694V20.6786H65.439V28.7525H63.8172H63.8216Z" fill="#F4F4F4"/>
<path d="M71.3694 28.7525L70.2607 19.3003H71.6912L72.2868 25.5394L73.4999 19.3003H74.7129L75.9259 25.4829L76.5216 19.3003H77.8999L76.8042 28.7525H75.3477L74.0912 22.0829L72.8216 28.7525H71.3651H71.3694Z" fill="#F4F4F4"/>
<path d="M83.5303 28.9003C82.8651 28.9003 82.252 28.709 81.6955 28.335C81.139 27.9568 80.6911 27.4046 80.3607 26.6829C80.0259 25.9568 79.8607 25.0742 79.8607 24.0307C79.8607 22.9872 80.0259 22.1003 80.3607 21.3785C80.6955 20.6524 81.139 20.1046 81.6955 19.7263C82.252 19.3481 82.8651 19.1611 83.5303 19.1611C84.1955 19.1611 84.8042 19.3524 85.3607 19.7263C85.9129 20.1046 86.3607 20.6568 86.6955 21.3785C87.0346 22.1046 87.1998 22.9872 87.1998 24.0307C87.1998 25.0742 87.0303 25.9611 86.6955 26.6829C86.3564 27.409 85.9129 27.9568 85.3607 28.335C84.8085 28.7133 84.1955 28.9003 83.5303 28.9003ZM83.5303 27.4437C83.9085 27.4437 84.252 27.3177 84.5651 27.0568C84.8738 26.8003 85.1216 26.4177 85.2998 25.909C85.4781 25.4003 85.5694 24.7742 85.5694 24.0264C85.5694 23.2785 85.4781 22.6524 85.2998 22.1481C85.1216 21.6437 84.8738 21.2611 84.5651 21.0003C84.2564 20.7394 83.9085 20.609 83.5303 20.609C83.152 20.609 82.8085 20.7394 82.4955 21.0003C82.1868 21.2611 81.939 21.6437 81.7607 22.1481C81.5825 22.6524 81.4911 23.2785 81.4911 24.0264C81.4911 24.7742 81.5825 25.4003 81.7607 25.909C81.939 26.4177 82.1868 26.8003 82.4955 27.0568C82.8042 27.3133 83.152 27.4437 83.5303 27.4437Z" fill="#F4F4F4"/>
<path d="M90.0391 28.7525V19.3003H93.2521C93.8826 19.3003 94.4347 19.4177 94.9043 19.6568C95.3782 19.8959 95.7434 20.2264 96.013 20.6568C96.2782 21.0829 96.413 21.5829 96.413 22.1481C96.413 22.7699 96.2521 23.3046 95.926 23.7525C95.5999 24.2046 95.1608 24.5307 94.6043 24.7394L96.6695 28.7481H94.926L93.0478 24.9699H91.6565V28.7481H90.0347L90.0391 28.7525ZM91.6608 23.6786H93.1173C93.6217 23.6786 94.0217 23.5394 94.326 23.2655C94.626 22.9916 94.7782 22.6307 94.7782 22.1786C94.7782 21.7264 94.626 21.3525 94.326 21.0786C94.026 20.8046 93.6217 20.6655 93.1173 20.6655H91.6608V23.6742V23.6786Z" fill="#F4F4F4"/>
<path d="M99.339 28.7525V19.3003H100.961V23.5264L104.348 19.3003H106.196L102.387 23.8786L106.37 28.7525H104.33L100.956 24.4307V28.7525H99.3346H99.339Z" fill="#F4F4F4"/>
</g>
<defs>
<linearGradient id="paint0_linear_62_8" x1="-0.286957" y1="16.2957" x2="32.287" y2="15.7" gradientUnits="userSpaceOnUse">
<stop stop-color="#29CCB9"/>
<stop offset="0.49" stop-color="#0091FF"/>
<stop offset="1" stop-color="#FF66B7"/>
</linearGradient>
<clipPath id="clip0_62_8">
<rect width="107" height="32" fill="white"/>
</clipPath>
</defs>
</svg>
