<svg width="24" height="24" viewBox="0 0 24 24" fill="none" xmlns="http://www.w3.org/2000/svg">
<path d="M20.307 4.07902C18.787 3.34296 17.1412 2.80872 15.4269 2.50005C15.4119 2.49956 15.3969 2.50249 15.3831 2.50864C15.3693 2.51479 15.3569 2.52402 15.3469 2.53567C15.1412 2.92744 14.9012 3.43793 14.7412 3.82971C12.9228 3.54478 11.0736 3.54478 9.2553 3.82971C9.09529 3.42606 8.85529 2.92744 8.63814 2.53567C8.62671 2.51193 8.59242 2.50005 8.55814 2.50005C6.8438 2.80872 5.20947 3.34296 3.678 4.07902C3.66657 4.07902 3.65515 4.09089 3.64372 4.10276C0.53506 8.93462 -0.322107 13.6359 0.100762 18.2897C0.100762 18.3134 0.112191 18.3372 0.135048 18.349C2.19225 19.9161 4.16945 20.8659 6.12378 21.4951C6.15807 21.507 6.19236 21.4951 6.20379 21.4713C6.66094 20.8184 7.07238 20.1298 7.42668 19.4056C7.44954 19.3581 7.42668 19.3107 7.38096 19.2988C6.72952 19.0376 6.11236 18.7289 5.50662 18.3728C5.46091 18.349 5.46091 18.2778 5.4952 18.2422C5.62091 18.1472 5.74663 18.0404 5.87235 17.9454C5.89521 17.9216 5.92949 17.9216 5.95235 17.9335C9.88389 19.7974 14.124 19.7974 18.0098 17.9335C18.0327 17.9216 18.067 17.9216 18.0898 17.9454C18.2155 18.0522 18.3413 18.1472 18.467 18.2541C18.5127 18.2897 18.5127 18.3609 18.4556 18.3846C17.8612 18.7527 17.2327 19.0495 16.5812 19.3107C16.5355 19.3225 16.5241 19.3819 16.5355 19.4175C16.9012 20.1417 17.3127 20.8303 17.7584 21.4832C17.7927 21.4951 17.827 21.507 17.8612 21.4951C19.827 20.8659 21.8042 19.9161 23.8614 18.349C23.8843 18.3372 23.8957 18.3134 23.8957 18.2897C24.3986 12.9117 23.0614 8.24605 20.3527 4.10276C20.3413 4.09089 20.3299 4.07902 20.307 4.07902ZM8.02098 15.4523C6.8438 15.4523 5.86092 14.3245 5.86092 12.9354C5.86092 11.5464 6.82095 10.4186 8.02098 10.4186C9.23244 10.4186 10.1925 11.5583 10.181 12.9354C10.181 14.3245 9.22101 15.4523 8.02098 15.4523ZM15.9869 15.4523C14.8097 15.4523 13.8269 14.3245 13.8269 12.9354C13.8269 11.5464 14.7869 10.4186 15.9869 10.4186C17.1984 10.4186 18.1584 11.5583 18.147 12.9354C18.147 14.3245 17.1984 15.4523 15.9869 15.4523Z" fill="currentColor"/>
</svg>
