<svg width="24" height="24" viewBox="0 0 24 24" fill="none" xmlns="http://www.w3.org/2000/svg">
<path d="M19.6429 18.4487C19.6473 18.442 19.654 18.4353 19.6585 18.4286C21.1205 16.6897 22 14.4487 22 12C22 9.55134 21.1205 7.31027 19.6607 5.57143C19.6562 5.56473 19.6496 5.56027 19.6451 5.55357C19.6205 5.52455 19.5982 5.49777 19.5737 5.47098C19.5647 5.45982 19.5558 5.45089 19.5469 5.43973L19.4554 5.33482L19.4531 5.33259C19.4196 5.29464 19.3839 5.2567 19.3504 5.21875L19.3482 5.21652C19.2768 5.14063 19.2054 5.06473 19.1317 4.99107L19.1295 4.98884L19.0223 4.8817L19.0156 4.875C18.9821 4.84152 18.9487 4.81027 18.9152 4.77902C18.904 4.76786 18.8929 4.7567 18.8795 4.74554C18.8571 4.72321 18.8348 4.70312 18.8125 4.68304C18.8058 4.67634 18.7969 4.66964 18.7902 4.66071C17.0089 3.00893 14.6228 2 12 2C9.37723 2 6.99107 3.00893 5.20759 4.66071C5.20089 4.66741 5.19196 4.67411 5.18527 4.68304C5.16295 4.70312 5.14062 4.72545 5.1183 4.74777C5.10714 4.75893 5.09598 4.77009 5.08259 4.78125C5.04911 4.8125 5.01563 4.84598 4.98214 4.87723L4.97545 4.88393L4.8683 4.99107L4.86607 4.9933C4.79241 5.06696 4.72098 5.14286 4.64955 5.21875L4.64732 5.22098C4.61161 5.25893 4.57812 5.29688 4.54464 5.33482L4.54241 5.33705C4.51116 5.37054 4.47991 5.40625 4.45089 5.44196C4.44196 5.45312 4.43304 5.46205 4.42411 5.47321C4.39955 5.5 4.37723 5.52902 4.35268 5.5558C4.34821 5.5625 4.34152 5.56696 4.33705 5.57366C2.87946 7.31027 2 9.55134 2 12C2 14.4487 2.87946 16.6897 4.33929 18.4286C4.34375 18.4353 4.35045 18.442 4.35491 18.4487L4.42411 18.5312C4.43304 18.5424 4.44196 18.5513 4.45089 18.5625L4.54241 18.6674C4.54241 18.6696 4.54464 18.6696 4.54464 18.6719C4.57812 18.7098 4.61161 18.7478 4.64732 18.7835L4.64955 18.7857C4.72098 18.8616 4.79241 18.9375 4.86384 19.0112L4.86607 19.0134C4.90179 19.0491 4.93527 19.0848 4.97098 19.1183L4.97768 19.125C5.05134 19.1987 5.12723 19.2701 5.20312 19.3393C6.99107 20.9911 9.37723 22 12 22C14.6228 22 17.0089 20.9911 18.7924 19.3393C18.8685 19.2696 18.9429 19.1981 19.0156 19.125L19.0223 19.1183C19.058 19.0826 19.0938 19.0491 19.1272 19.0134L19.1295 19.0112C19.2031 18.9375 19.2746 18.8616 19.3438 18.7857L19.346 18.7835C19.3795 18.7455 19.4152 18.7098 19.4487 18.6719C19.4487 18.6696 19.4509 18.6696 19.4509 18.6674C19.4821 18.6339 19.5134 18.5982 19.5424 18.5625C19.5513 18.5513 19.5603 18.5424 19.5692 18.5312C19.5944 18.5043 19.619 18.4768 19.6429 18.4487ZM19.7344 15.2656C19.4263 15.9933 19.0201 16.6674 18.5246 17.279C17.9665 16.7967 17.3563 16.3782 16.7054 16.0312C16.9643 14.9844 17.125 13.8348 17.1674 12.625H20.3705C20.3036 13.5379 20.0893 14.4241 19.7344 15.2656ZM20.3705 11.375H17.1674C17.125 10.1652 16.9643 9.01562 16.7054 7.96875C17.3594 7.62054 17.9688 7.20089 18.5246 6.72098C19.6017 8.04682 20.2461 9.67129 20.3705 11.375ZM15.2656 4.26562C16.1518 4.64062 16.9576 5.15848 17.6674 5.81027C17.2551 6.16137 16.8112 6.4737 16.3415 6.7433C15.9911 5.73884 15.5424 4.86607 15.0201 4.16741C15.1027 4.19866 15.1853 4.23214 15.2656 4.26562ZM13.2433 19.904C13.0379 20.0647 12.8326 20.1875 12.625 20.2701V16.1295C13.5107 16.1913 14.3817 16.3885 15.2076 16.7143C15.0223 17.2634 14.808 17.7701 14.5603 18.2277C14.1719 18.9509 13.7165 19.529 13.2433 19.904ZM14.5603 5.77232C14.8058 6.23214 15.0223 6.73884 15.2076 7.28571C14.3817 7.61151 13.5107 7.80874 12.625 7.87054V3.73214C12.8304 3.81473 13.0379 3.93527 13.2433 4.09821C13.7165 4.47098 14.1719 5.04911 14.5603 5.77232ZM12.625 14.8772V12.625H15.9174C15.8817 13.6116 15.7589 14.5692 15.5536 15.4777L15.5469 15.5045C14.6101 15.1492 13.625 14.9378 12.625 14.8772ZM12.625 11.375V9.12277C13.6473 9.06027 14.6295 8.84375 15.5469 8.49554L15.5536 8.52232C15.7589 9.4308 15.8817 10.3862 15.9174 11.375H12.625ZM11.375 12.625V14.8772C10.3527 14.9397 9.37054 15.1562 8.45313 15.5045L8.44643 15.4777C8.24107 14.5692 8.1183 13.6138 8.08259 12.625H11.375ZM8.08259 11.375C8.1183 10.3884 8.24107 9.4308 8.44643 8.52232L8.45313 8.49554C9.37054 8.84375 10.3504 9.06027 11.375 9.12277V11.375H8.08259ZM11.375 16.1295V20.2679C11.1696 20.1853 10.9621 20.0647 10.7567 19.9018C10.2835 19.529 9.82589 18.9487 9.4375 18.2254C9.19196 17.7656 8.97545 17.2589 8.79018 16.7121C9.62054 16.3862 10.4844 16.192 11.375 16.1295ZM11.375 7.87054C10.4893 7.80874 9.61832 7.61151 8.79241 7.28571C8.97768 6.73661 9.19196 6.22991 9.43973 5.77232C9.82812 5.04911 10.2835 4.46875 10.7589 4.09598C10.9643 3.93527 11.1696 3.8125 11.3772 3.72991V7.87054H11.375ZM8.73438 4.26562C8.81696 4.23214 8.89732 4.19866 8.97991 4.16741C8.45759 4.86607 8.00893 5.73884 7.65848 6.7433C7.18973 6.47545 6.74554 6.16295 6.33259 5.81027C7.04241 5.15848 7.84821 4.64062 8.73438 4.26562ZM4.26562 8.73438C4.57366 8.0067 4.97991 7.33259 5.47545 6.72098C6.03125 7.20089 6.64063 7.62054 7.29464 7.96875C7.03571 9.01562 6.875 10.1652 6.83259 11.375H3.62946C3.69643 10.4621 3.91071 9.57589 4.26562 8.73438ZM3.62946 12.625H6.83259C6.875 13.8348 7.03571 14.9844 7.29464 16.0312C6.64371 16.3782 6.03353 16.7967 5.47545 17.279C4.39828 15.9532 3.75395 14.3287 3.62946 12.625ZM8.73438 19.7344C7.84821 19.3594 7.04241 18.8415 6.33259 18.1897C6.74554 17.8371 7.18973 17.5268 7.65848 17.2567C8.00893 18.2612 8.45759 19.1339 8.97991 19.8326C8.89732 19.8013 8.81473 19.7679 8.73438 19.7344ZM15.2656 19.7344C15.183 19.7679 15.1027 19.8013 15.0201 19.8326C15.5424 19.1339 15.9911 18.2612 16.3415 17.2567C16.8103 17.5246 17.2545 17.8371 17.6674 18.1897C16.9615 18.8388 16.149 19.3613 15.2656 19.7344Z" fill="currentColor"/>
</svg>
