<svg width="211" height="32" viewBox="0 0 211 32" fill="none" xmlns="http://www.w3.org/2000/svg">
<g clip-path="url(#clip0_1301_2322)">
<path d="M45.86 8.16018H50.7V24.0002H44.7L40.9 16.8002L40 14.8602L40.0999 18.1202V24.0002H35.2V8.16018H41.2L45 15.3802L45.86 17.3002H46L45.86 14.0002V8.16018ZM63 17.8802L68 19.1502C67.8145 20.207 67.344 21.1932 66.639 22.0021C65.9341 22.811 65.0215 23.412 64 23.7402C62.9308 24.0843 61.813 24.2532 60.6899 24.2402C57.3499 24.2402 54.88 22.9202 53.61 20.5002C52.9177 19.1317 52.5741 17.6134 52.61 16.0802C52.61 12.6202 53.96 10.1502 56.38 8.88018C57.7069 8.19181 59.1855 7.84795 60.68 7.88018C62.8115 7.74814 64.9083 8.46746 66.51 9.88018C67.2309 10.6435 67.7079 11.6044 67.8799 12.6402L63.08 14.5102C63.0728 13.7725 62.7993 13.0622 62.31 12.5102C61.882 12.188 61.355 12.0253 60.82 12.0502C60.3106 12.0288 59.8099 12.1874 59.4058 12.4983C59.0017 12.8091 58.7199 13.2523 58.61 13.7502C58.3998 14.4846 58.302 15.2465 58.32 16.0102C58.32 17.8102 58.64 19.0102 59.4 19.5402C59.8521 19.8489 60.3933 20 60.9399 19.9702C62.0799 20.0002 62.85 19.3902 63 17.8802ZM79.2799 8.16018H84.8799V24.0002H79.2799V18.1002H74.94V24.0002H69.3499V8.16018H74.94V14.0002H79.2799V8.16018ZM97.69 8.16018L102.85 24.0002H97.1399L96.4199 21.0002H92.15L91.41 24.0002H85.8399L91 8.16018H97.69ZM94.3099 12.0002L93 17.5002H95.62L94.3099 12.0002ZM103.82 8.16018H109.42V24.0002H103.82V8.16018ZM122.47 8.16018H127.32V24.0002H121.32L117.53 16.8002L116.67 14.8602H116.62L116.72 18.1202V24.0002H111.87V8.16018H117.87L121.67 15.3802L122.53 17.3002L122.43 14.0402L122.47 8.16018ZM139.77 24.0002H130.07V8.16018H139.14C143.14 8.16018 145.07 9.58018 145.07 12.3802C145.07 14.2802 143.97 15.6702 141.49 16.0302C144.25 16.3102 145.49 17.7502 145.49 19.7902C145.48 22.6102 143.63 24.0002 139.77 24.0002ZM135.42 12.0002V14.3002H137.92C138.92 14.3002 139.36 13.9202 139.36 13.1502C139.36 12.3802 138.88 12.0002 137.92 12.0002H135.42ZM135.42 18.0502V20.3502H138.28C139.28 20.3502 139.77 19.9402 139.77 19.1802C139.77 18.4202 139.26 18.0502 138.28 18.0502H135.42ZM152.56 8.16018V19.9002H159.74V24.0002H147V8.16018H152.56ZM168.56 7.92018C173.56 7.92018 176.56 10.9202 176.56 16.0802C176.56 21.2402 173.56 24.2402 168.56 24.2402C165.23 24.2402 162.75 22.9202 161.48 20.5002C160.788 19.1317 160.444 17.6134 160.48 16.0802C160.48 12.6202 161.82 10.1502 164.25 8.88018C165.592 8.19868 167.085 7.8684 168.59 7.92018H168.56ZM168.56 12.1202C168.062 12.0922 167.572 12.251 167.186 12.5655C166.799 12.8799 166.544 13.3274 166.47 13.8202C166.283 14.5586 166.196 15.3186 166.21 16.0802C166.21 17.9002 166.55 19.0802 167.21 19.6102C167.582 19.9114 168.052 20.0646 168.53 20.0402C169.032 20.0673 169.526 19.9044 169.913 19.5838C170.3 19.2632 170.553 18.8085 170.62 18.3102C170.803 17.5815 170.884 16.831 170.86 16.0802C170.86 14.2302 170.55 13.0802 169.86 12.5302C169.49 12.2635 169.046 12.12 168.59 12.1202H168.56ZM188.42 17.8802L193.42 19.1502C193.235 20.207 192.764 21.1932 192.059 22.0021C191.354 22.811 190.442 23.412 189.42 23.7402C188.351 24.0843 187.233 24.2532 186.11 24.2402C182.77 24.2402 180.3 22.9202 179.03 20.5002C178.338 19.1317 177.994 17.6134 178.03 16.0802C178.03 12.6202 179.38 10.1502 181.8 8.88018C183.127 8.19181 184.605 7.84795 186.1 7.88018C188.232 7.74814 190.328 8.46746 191.93 9.88018C192.651 10.6435 193.128 11.6044 193.3 12.6402L188.5 14.5102C188.493 13.7725 188.219 13.0622 187.73 12.5102C187.302 12.188 186.775 12.0253 186.24 12.0502C185.731 12.0288 185.23 12.1874 184.826 12.4983C184.422 12.8091 184.14 13.2523 184.03 13.7502C183.82 14.4846 183.722 15.2465 183.74 16.0102C183.74 17.8102 184.06 19.0102 184.82 19.5402C185.272 19.8489 185.813 20 186.36 19.9702C187.49 20.0002 188.26 19.3902 188.45 17.8802H188.42ZM204.42 8.16018H210.42L205.57 14.4502L210.86 24.0002H204.6L201.65 18.0702L200.35 19.8502V24.0002H194.76V8.16018H200.35V14.0602L204.42 8.16018Z" fill="url(#paint0_linear_1301_2322)"/>
<mask id="mask0_1301_2322" style="mask-type:luminance" maskUnits="userSpaceOnUse" x="0" y="0" width="32" height="32">
<path d="M32 0H0V32H32V0Z" fill="white"/>
</mask>
<g mask="url(#mask0_1301_2322)">
<path d="M29.77 13.23L30.17 13.03C30.7168 12.7716 31.1783 12.3622 31.5 11.85C31.8275 11.3436 32.0011 10.7531 32 10.15V3.2C31.9974 2.35212 31.6594 1.53972 31.0598 0.940172C30.4603 0.340626 29.6479 0.00263729 28.8 0L3.2 0C2.35212 0.00263729 1.53972 0.340626 0.940172 0.940172C0.340626 1.53972 0.00263729 2.35212 0 3.2L0 28.8C0.00263729 29.6479 0.340626 30.4603 0.940172 31.0598C1.53972 31.6594 2.35212 31.9974 3.2 32H28.8C29.6479 31.9974 30.4603 31.6594 31.0598 31.0598C31.6594 30.4603 31.9974 29.6479 32 28.8V22.1C32.0016 21.5143 31.842 20.9395 31.5386 20.4386C31.2352 19.9376 30.7998 19.5299 30.28 19.26L29.68 18.95C29.1608 18.6699 28.7291 18.2518 28.4326 17.7418C28.1362 17.2318 27.9864 16.6498 28 16.06C28.0089 15.4678 28.182 14.8897 28.5 14.39C28.8119 13.8966 29.2505 13.496 29.77 13.23ZM22.08 20.8C22.0774 21.6479 21.7394 22.4603 21.1398 23.0598C20.5403 23.6594 19.7279 23.9974 18.88 24H9.28C8.43212 23.9974 7.61972 23.6594 7.02017 23.0598C6.42063 22.4603 6.08264 21.6479 6.08 20.8V11.2C6.08264 10.3521 6.42063 9.53972 7.02017 8.94017C7.61972 8.34063 8.43212 8.00264 9.28 8H18.88C19.7279 8.00264 20.5403 8.34063 21.1398 8.94017C21.7394 9.53972 22.0774 10.3521 22.08 11.2V20.8Z" fill="url(#paint1_linear_1301_2322)"/>
</g>
</g>
<defs>
<linearGradient id="paint0_linear_1301_2322" x1="33.99" y1="2.49018" x2="211.36" y2="29.6302" gradientUnits="userSpaceOnUse">
<stop stop-color="#0E84F2"/>
<stop offset="1" stop-color="#014EB8"/>
</linearGradient>
<linearGradient id="paint1_linear_1301_2322" x1="0" y1="0" x2="32" y2="32" gradientUnits="userSpaceOnUse">
<stop stop-color="#0E84F2"/>
<stop offset="1" stop-color="#014EB8"/>
</linearGradient>
<clipPath id="clip0_1301_2322">
<rect width="210.86" height="32" fill="white"/>
</clipPath>
</defs>
</svg>
