
<svg width="32" height="32" viewBox="0 0 32 32" fill="none" xmlns="http://www.w3.org/2000/svg">
<g clip-path="url(#clip0_1296_2289)">
<mask id="mask0_1296_2289" style="mask-type:luminance" maskUnits="userSpaceOnUse" x="0" y="0" width="32" height="32">
<path d="M32 0H0V32H32V0Z" fill="white"/>
</mask>
<g mask="url(#mask0_1296_2289)">
<path d="M29.772 13.228L30.172 13.032C30.7179 12.7729 31.1793 12.3646 31.5028 11.8542C31.8263 11.3438 31.9987 10.7523 32 10.148V3.2C32 2.35131 31.6628 1.53738 31.0628 0.937258C30.4626 0.337142 29.6487 0 28.8 0H3.2C2.35131 0 1.53738 0.337142 0.937258 0.937258C0.337142 1.53738 0 2.35131 0 3.2V28.8C0 29.6487 0.337142 30.4626 0.937258 31.0628C1.53738 31.6628 2.35131 32 3.2 32H28.8C29.6487 32 30.4626 31.6628 31.0628 31.0628C31.6628 30.4626 32 29.6487 32 28.8V22.104C32 21.5182 31.8395 20.9435 31.5355 20.4427C31.2315 19.942 30.7958 19.5342 30.276 19.264L29.68 18.952C29.1527 18.6778 28.7122 18.2621 28.4078 17.7516C28.1035 17.2411 27.9474 16.6558 27.9569 16.0616C27.9665 15.4673 28.1413 14.8874 28.4619 14.3869C28.7825 13.8865 29.2362 13.4852 29.772 13.228ZM22.08 20.8C22.08 21.6487 21.7428 22.4626 21.1428 23.0628C20.5426 23.6628 19.7287 24 18.88 24H9.28C8.4313 24 7.61738 23.6628 7.01725 23.0628C6.41715 22.4626 6.08 21.6487 6.08 20.8V11.2C6.08 10.3513 6.41715 9.53738 7.01725 8.93725C7.61738 8.33715 8.4313 8 9.28 8H18.88C19.7287 8 20.5426 8.33715 21.1428 8.93725C21.7428 9.53738 22.08 10.3513 22.08 11.2V20.8Z" fill="url(#paint0_linear_1296_2289)"/>
</g>
</g>
<defs>
<linearGradient id="paint0_linear_1296_2289" x1="0" y1="0" x2="32" y2="32" gradientUnits="userSpaceOnUse">
<stop stop-color="#0E84F2"/>
<stop offset="1" stop-color="#014EB8"/>
</linearGradient>
<clipPath id="clip0_1296_2289">
<rect width="32" height="32" fill="white"/>
</clipPath>
</defs>
</svg>
